<svg width="191" height="33" fill="none" xmlns="http://www.w3.org/2000/svg"><path fill-rule="evenodd" clip-rule="evenodd" d="M161.195 31.972c-.421-.295-.749-.616-.979-.949a3.004 3.004 0 01-.46-1.038 4.732 4.732 0 01-.118-1.126V18.27a6.573 6.573 0 01.045-.815c.038-.402.134-.854.295-1.371a4.797 4.797 0 01.824-1.49c.378-.49.911-.889 1.593-1.21.682-.317 1.558-.49 2.626-.497 1.015.008 1.853.18 2.515.505.659.326 1.179.743 1.565 1.26.379.513.652 1.06.831 1.639a8.19 8.19 0 01.326 1.639c.045.52.065.941.058 1.275v9.655a4.43 4.43 0 01-.119 1.126 2.985 2.985 0 01-.46 1.038c-.229.333-.555.651-.979.95h7.34c-.422-.296-.75-.617-.98-.95a2.983 2.983 0 01-.459-1.038 4.733 4.733 0 01-.119-1.126v-9.61c-.008-.414.015-.904.065-1.447a7.99 7.99 0 01.349-1.676c.184-.57.467-1.106.861-1.594.394-.482.934-.883 1.608-1.179.682-.303 1.543-.46 2.588-.467.927.008 1.705.15 2.336.422.631.275 1.134.651 1.512 1.113.387.468.675.995.877 1.574.191.57.325 1.164.393 1.772.066.608.096 1.194.089 1.75v9.342c.007.386-.03.763-.119 1.126a3.001 3.001 0 01-.459 1.038c-.23.333-.548.651-.98.95H191c-.422-.296-.75-.617-.98-.95a3.001 3.001 0 01-.459-1.038 4.785 4.785 0 01-.119-1.126V18.45c.008-.64-.03-1.344-.119-2.129a10.373 10.373 0 00-.57-2.366 6.892 6.892 0 00-1.328-2.201c-.594-.667-1.394-1.21-2.397-1.616-.999-.41-2.262-.617-3.774-.632a10.565 10.565 0 00-1.884.157 8.847 8.847 0 00-2.01.616 8.026 8.026 0 00-1.972 1.275c-.646.548-1.24 1.26-1.787 2.136-.49-.957-1.053-1.72-1.705-2.285a6.784 6.784 0 00-2.017-1.26 8.409 8.409 0 00-2.01-.525 11.86 11.86 0 00-1.654-.111 8.915 8.915 0 00-2.285.268c-.8.184-1.581.54-2.343 1.068-.763.532-1.447 1.297-2.048 2.312v-3.47a3.89 3.89 0 01-1.113.556 4.63 4.63 0 01-1.245.156h-3.338c.421.298.75.616.979.95.223.325.379.674.46 1.037.081.364.126.743.119 1.126v15.35c.007.386-.038.762-.119 1.126a2.985 2.985 0 01-.46 1.038c-.229.333-.555.651-.979.949h7.352v-.003zm-13.793 0c-.483-.295-.854-.616-1.114-.957a2.98 2.98 0 01-.533-1.053 3.99 3.99 0 01-.133-1.105V19.69c.007-1.275.156-2.32.444-3.151.29-.83.674-1.482 1.149-1.95.482-.467 1-.792 1.58-.987a5.142 5.142 0 011.72-.275c.482 0 .927.053 1.32.172.402.118.771.295 1.127.54V9.68a6.533 6.533 0 00-.778-.142 8.688 8.688 0 00-.778-.038 6.24 6.24 0 00-2.053.349 6.665 6.665 0 00-1.684.904 8.15 8.15 0 00-1.32 1.201 9.206 9.206 0 00-.95 1.283v-3.56a3.44 3.44 0 01-1.075.556 4.533 4.533 0 01-1.237.156h-3.248c.422.298.75.616.98.95a3 3 0 01.46 1.037c.08.364.126.742.118 1.126v15.35a4.77 4.77 0 01-.118 1.126 3.005 3.005 0 01-.46 1.037c-.23.334-.555.652-.98.95h7.563v.007zm-45.828-21.578l-2.492 3.116h2.492v15.35c.007.385-.038.762-.119 1.125a3.001 3.001 0 01-.459 1.038c-.23.333-.556.651-.98.95h7.565c-.483-.296-.854-.617-1.114-.958a2.99 2.99 0 01-.533-1.053 3.99 3.99 0 01-.133-1.105v-15.35h4.759c.222-.007.444.008.659.038.215.03.414.096.609.207.192.104.363.275.512.513v-4.05c-.096.03-.23.058-.401.103a2.476 2.476 0 01-.533.074h-5.605V6.698c-.008-.2.007-.483.06-.839.046-.348.172-.72.371-1.09.207-.38.533-.697.993-.957.459-.26 1.098-.402 1.914-.41.547 0 1.022.059 1.424.172.394.111.734.245 1.022.41l3.113-3.515a15.79 15.79 0 00-3.201-.31c-1.409-.001-2.714.17-3.916.504-1.202.34-2.248.83-3.144 1.482a6.846 6.846 0 00-2.098 2.404c-.505.95-.758 2.04-.763 3.262v2.583h-.002zM82.4 31.972c-.422-.295-.75-.616-.98-.949a2.996 2.996 0 01-.46-1.038 4.765 4.765 0 01-.119-1.126V18.002a7.546 7.546 0 01.046-.912c.038-.394.141-.838.31-1.313.165-.474.445-.934.839-1.37.386-.438.934-.801 1.63-1.084.698-.283 1.594-.43 2.692-.437 1.119 0 2.084.2 2.891.594.808.393 1.432.949 1.869 1.676.444.72.659 1.58.666 2.58V28.86c.008.386-.03.763-.118 1.126a2.985 2.985 0 01-.46 1.038c-.23.333-.555.651-.98.95h7.34c-.421-.296-.75-.617-.979-.95a2.996 2.996 0 01-.46-1.038 4.765 4.765 0 01-.118-1.126V16.535c-.008-1.245-.238-2.313-.682-3.204a5.841 5.841 0 00-1.818-2.18 7.77 7.77 0 00-2.626-1.244 11.797 11.797 0 00-3.108-.402 10.621 10.621 0 00-4.005.793 7.368 7.368 0 00-1.712.988c-.512.4-.919.853-1.224 1.378V9.682a3.89 3.89 0 01-1.114.556 4.626 4.626 0 01-1.245.156H75.05c.422.298.75.616.98.95a3 3 0 01.46 1.037c.08.364.126.743.118 1.126v15.35c.008.386-.038.762-.119 1.126-.08.363-.237.712-.46 1.037-.229.334-.555.652-.979.95h7.35v.002zM65.358 10.394c.422.298.75.616.98.95a3 3 0 01.46 1.037c.08.364.126.742.118 1.126v15.35a4.75 4.75 0 01-.118 1.126 3 3 0 01-.46 1.037c-.23.334-.555.652-.98.95h7.34c-.421-.296-.75-.616-.98-.95a2.995 2.995 0 01-.459-1.037 4.77 4.77 0 01-.118-1.127V9.68a3.89 3.89 0 01-1.114.556 4.621 4.621 0 01-1.245.157h-3.424v.002z" fill="#AF1C08"/><path fill-rule="evenodd" clip-rule="evenodd" d="M46.449 10.394l-2.447 4.985a9.453 9.453 0 012.091-1.03c.72-.253 1.467-.422 2.255-.52a19.251 19.251 0 012.507-.142c.869 0 1.7.03 2.5.088.793.058 1.55.134 2.262.222L42.535 31.972h19.799l2.58-5.115c-.54.326-1.172.624-1.891.884-.727.26-1.593.467-2.611.623-1.008.15-2.224.23-3.641.23-.586 0-1.217-.015-1.899-.045a53.316 53.316 0 01-4.242-.356l12.592-17.796H46.45v-.003z" fill="#133D8B"/><path fill-rule="evenodd" clip-rule="evenodd" d="M24.737 14.533c.92-.498 1.81-.869 2.669-1.099.868-.237 1.631-.394 2.298-.46.666-.065 1.156-.095 1.482-.088 1.343.008 2.358.26 3.047.75.697.49 1.046 1.18 1.046 2.053 0 .548-.134 1-.402 1.356-.268.348-.651.646-1.164.876-.52.238-1.141.445-1.891.631a82.79 82.79 0 01-2.55.609c-.674.149-1.364.31-2.068.497-.705.192-1.379.43-2.033.72a7.054 7.054 0 00-1.765 1.106 4.873 4.873 0 00-1.232 1.684c-.303.674-.46 1.49-.467 2.447.008 1.386.31 2.61.912 3.663.593 1.053 1.431 1.869 2.507 2.462 1.083.594 2.343.896 3.79.904.49 0 .972-.038 1.439-.103a10.5 10.5 0 001.409-.296l2.848-3.56c-.666.2-1.336.348-1.987.437-.651.096-1.283.141-1.884.141-1.015-.015-1.825-.164-2.431-.444-.601-.29-1.053-.639-1.351-1.053-.296-.422-.49-.838-.586-1.245-.096-.409-.134-.735-.126-.995.008-.674.149-1.237.422-1.691a3.359 3.359 0 011.075-1.106 6.337 6.337 0 011.447-.682c.525-.18 1.038-.318 1.55-.437.735-.172 1.371-.318 1.907-.444a11.917 11.917 0 001.47-.445 6.933 6.933 0 001.342-.712v6.984c.008.972.157 1.773.43 2.397.282.63.646 1.118 1.09 1.474.437.348.912.608 1.41.763.504.164.98.26 1.431.295.444.045.816.06 1.111.053h.667l2.136-2.982h-.844c-.6-.023-1.14-.111-1.623-.283a2.167 2.167 0 01-1.141-.934c-.29-.444-.43-1.09-.437-1.942V17.16a12.744 12.744 0 00-.134-1.922 7.399 7.399 0 00-.593-2.04 5.595 5.595 0 00-1.329-1.846c-.593-.555-1.378-1-2.365-1.336-.98-.333-2.21-.505-3.68-.512-.734 0-1.438.045-2.105.119-.674.073-1.32.171-1.942.282l-2.805 4.629zM6.673 19.916l7.83 10.456c.394.532.77.934 1.15 1.186.37.26.77.422 1.216.49.437.066.957.081 1.558.06.601-.03 1.32-.06 2.172-.087l1.691-.046a15.196 15.196 0 01-2.025-1.669 18.842 18.842 0 01-1.49-1.669l-5.918-7.43a12.793 12.793 0 00-1.69-1.78l8.053-9.033h-7.252c.296.2.54.414.727.652.192.237.29.505.296.815-.015.296-.126.647-.349 1.06a9.51 9.51 0 01-.757 1.203c-.29.393-.54.704-.763.941l-4.449 4.85z" fill="#133D8B"/><path fill-rule="evenodd" clip-rule="evenodd" d="M0 .83c.422.295.75.616.98.942.222.333.378.681.46 1.045.08.363.125.742.118 1.126v24.916c.007.386-.038.763-.119 1.126-.08.364-.237.712-.46 1.038-.23.333-.555.651-.979.95h7.34c-.422-.296-.75-.617-.98-.95a2.995 2.995 0 01-.46-1.038 4.766 4.766 0 01-.118-1.126V.118a3.91 3.91 0 01-1.11.555A4.625 4.625 0 013.425.83H0z" fill="#133D8B"/><path fill-rule="evenodd" clip-rule="evenodd" d="M68.643.547a4.13 4.13 0 014.098 4.196 4.191 4.191 0 01-4.221 4.124 4.13 4.13 0 01-4.098-4.197A4.195 4.195 0 0168.643.547zm59.872 10.388h.003c-.005-.008-.008-.013-.013-.018-.003.003-.005.005-.008.005.008.005.013.008.018.013zM121.2 32.147c.016.005.031.013.047.018v-.003a.519.519 0 00-.047-.015z" fill="#AF1C08"/><path fill-rule="evenodd" clip-rule="evenodd" d="M124.927 8.993c-6.61 0-12.004 5.393-12.004 12.004 0 6.61 5.391 12.003 12.004 12.003 6.61 0 12.004-5.393 12.004-12.003s-5.394-12.004-12.004-12.004zm-8.002 18.452c-1.108-.742-2.025-1.55-2.671-2.446a10.037 10.037 0 01.301-4.813c.691 1.055 1.727 2.01 3.009 2.891-.527 1.558-.762 3.033-.639 4.368zm-2.133-7.943c.646-1.67 1.704-3.192 3.053-4.474.595.878 1.512 1.686 2.638 2.456-1.113 1.563-2.027 3.204-2.661 4.873-1.295-.88-2.336-1.822-3.03-2.855zm8.055-7.984a14.042 14.042 0 00-4.778 2.656c-.396-.682-.545-1.343-.353-1.984a10.563 10.563 0 014.959-1.902c-.089.344-.068.732.172 1.23zm8.039 8.946c-1.351-.114-2.79-.424-4.247-.886a88.075 88.075 0 001.106-4.758 15.45 15.45 0 002.644.339c.371 1.6.542 3.436.497 5.305zm-.099-5.3c.728-.003 1.382-.086 1.871-.285a12.213 12.213 0 012.129 5.08c-.858.427-1.977.588-3.257.543-.02-1.884-.275-3.735-.743-5.338zm-4.337 5.123c1.52.462 3.019.758 4.413.843-.093 1.876-.399 3.737-.931 5.416-1.621-.116-3.369-.454-5.144-.984a69.966 69.966 0 001.662-5.275zm-2.563 4.987c-1.924-.642-3.719-1.445-5.315-2.432a23.78 23.78 0 012.585-4.896c1.346.829 2.914 1.548 4.528 2.096a190.293 190.293 0 01-1.798 5.232zm2.027-5.939c-1.545-.54-3.032-1.227-4.327-2.012.979-1.384 2.075-2.667 3.204-3.737a8.504 8.504 0 002.568 1.141c-.47 1.553-.95 3.088-1.445 4.608zm-4.999-2.437c-1.109-.737-2.002-1.514-2.581-2.315a14.8 14.8 0 014.692-2.73c.298.486.745.978 1.325 1.43-1.224 1-2.393 2.242-3.436 3.615zm-2.603 6.664c1.578.972 3.424 1.795 5.322 2.414-.49 1.346-.979 2.646-1.489 3.949-1.619-.538-3.162-1.215-4.533-2.045-.091-1.293.169-2.763.7-4.318zm6.221 2.689c1.788.52 3.53.838 5.179.94-.561 1.552-1.318 2.888-2.31 3.857-1.417-.12-2.947-.419-4.502-.886a55.191 55.191 0 001.633-3.911zm5.984.972c1.402.025 2.624-.136 3.619-.512-.622 1.626-1.543 3-2.639 3.938-.841.346-1.985.493-3.298.45 1.008-.982 1.775-2.33 2.318-3.876zm.21-.639c.51-1.684.77-3.56.803-5.428 1.313.02 2.452-.162 3.348-.606a12.79 12.79 0 01-.51 5.502c-.975.404-2.212.568-3.641.532zm2.186-11.834c.359-.21.574-.5.586-.912 1.535 1.382 2.273 3.245 2.78 4.472a2.696 2.696 0 01-1.058 1.396 12.225 12.225 0 00-2.308-4.956zm.076-2.298c.003.003.005.008.008.01a11.758 11.758 0 013.217 5.3l.015.035.043.162-.056-.197c-.687-1.775-1.171-2.909-2.757-4.31-.068-.285-.217-.616-.46-.992l-.096-.091c.026.03.056.055.086.083zm-6.557-3.118a.447.447 0 00-.058-.003c.25.03.5.068.745.116-.003-.002-.005-.002-.005-.005l.091.02-.084-.015c.705.46 1.063.94 1.386 1.467l.003-.002c-.22-.52-.434-.861-.853-1.351-.069-.018-.139-.033-.208-.048l.205.043c0 .003.003.003.003.005.58.139 1.146.32 1.689.543 0 0 0-.003.002-.003l.121.05c-.04-.017-.083-.032-.123-.047-.22.303-.51.53-.836.808a.063.063 0 00.01.02c.2-.07.8-.427 1.033-.745a.383.383 0 00-.046-.02l.048.02c.513.22 1.005.475 1.477.763l-.002-.003.043.028c-.013-.008-.025-.018-.041-.025.175.134.329.257.478.384-.995-.374-1.99-.51-2.987-.402 1.388.083 2.537.361 3.449.83.469.463.747.86.881 1.213-1.033-.735-2.399-1.394-4.26-1.975l-.126-.048c1.896.712 3.353 1.528 4.477 2.412.02.35-.147.63-.472.838-1.036-1.192-2.359-2.283-4.013-3.194 1.576.982 2.823 2.106 3.788 3.315-.394.177-.947.275-1.624.288-.517-1.54-1.244-2.813-2.164-3.603.786.818 1.392 2.085 1.801 3.603-.429-.01-.904-.048-1.414-.119a8.117 8.117 0 01-.987-.2c.214-1.08.414-2.173.598-3.28a295.032 295.032 0 01-.932 3.185 8.997 8.997 0 01-2.244-1.053c1.063-.942 2.143-1.682 3.178-2.136-1.179.316-2.393.97-3.575 1.86-.528-.388-.954-.805-1.247-1.216a14.295 14.295 0 014.822-.642.5.5 0 01.011-.053 13.218 13.218 0 00-5.028.39c-.222-.405-.3-.784-.189-1.107 1.571-.103 3.31.101 5.214.717-1.838-.676-3.548-.967-5.108-.934.197-.29.487-.487.912-.563 1.787.08 3.04.533 4.226 1.472l.008-.008c-.871-.828-1.977-1.36-3.343-1.603a9.115 9.115 0 011.219.015l-.149-.017c.064 0 .132.007.2.015zm-12.539 7.595c0 .002 0 .002 0 0 .053-.144.111-.285.169-.427l-.007.015.015-.032a11.807 11.807 0 013.126-4.346l.002-.005.056-.043c.267-.232.548-.452.835-.659l.054-.043-.008.008a11.69 11.69 0 014.656-1.967h-.023c.041-.008.081-.013.124-.018.659-.116 1.336-.18 2.027-.18.266 0 .528.013.788.031-.926-.058-1.866 0-2.815.15-.033.004-.066.012-.101.017.192-.008.381-.013.568-.013a1.039 1.039 0 00-.661.631c-1.836.147-3.424.72-4.775 1.66.06-.104.131-.208.212-.311-.015.01-.03.022-.048.033l-.836.659-.055.047c-.013.049-.026.096-.036.144-1.343 1.109-2.366 2.54-3.09 4.202l-.008.018c.755-1.402 1.442-2.528 3.065-3.861-.068.67.091 1.308.457 1.967-1.353 1.262-2.403 2.765-3.067 4.451-.394-.689-.614-1.403-.624-2.128 0 .005-.003.007-.003.01l.003-.01zm7.353 15.235c-.048-.015-.091-.032-.137-.05a11.783 11.783 0 01-6.292-5.123.03.03 0 01.005.015l-.017-.033a12.3 12.3 0 01-.687-1.348l-.01-.018v-.005a11.616 11.616 0 01-.351-.937l-.008-.015-.01-.04c-.139-.43-.252-.869-.343-1.318l-.008-.026c.003.006.003.01.005.016a11.79 11.79 0 01.255-5.618v-.008l.02-.066-.02.074c.038.707.258 1.398.624 2.063a10.225 10.225 0 00-.402 4.688 4.758 4.758 0 01-.474-1.123l.343 1.318.018.055c.07.15.149.298.234.442.036.177.069.318.114.495.003.008.008.015.01.023l.687 1.348.01.018c-.204-.434-.29-.818-.404-1.263.654.869 1.553 1.654 2.603 2.348.364 1.935 1.551 3.134 4.093 4.035l.094.03c-2.048-.815-3.22-1.903-3.523-3.678a21.22 21.22 0 004.278 1.929c-.238.598-.47 1.179-.712 1.765l.085.03-.08-.023zm2.898.56l.015-.002a11.475 11.475 0 01-2.333-.388s0 .002-.002.002l-.187-.055.187.053c.295-.564.583-1.137.858-1.715 1.477.437 2.876.717 4.22.84-.139.137-1.382 1.137-2.745 1.26l.088.008-.101-.002zm6.54-1.484c-.005 0-.008.003-.013.003a11.667 11.667 0 01-5.754 1.507c-.101 0-.202-.005-.303-.007l-.028.002-.177-.007c.069.002.137.002.205.005a5.54 5.54 0 003.116-1.23c1.171.055 2.166-.03 2.941-.27a2.63 2.63 0 00.147-.086c-.046.028-.089.058-.134.083zm4.987-5.512c-.003.003-.005.003-.005.005a11.798 11.798 0 01-3.773 4.717l-.022.018c-.046.032-.094.063-.139.096l.161-.114c1.243-.942 2.23-2.343 2.854-4.02.358-.194.666-.427.919-.697a1.71 1.71 0 00.043-.098c-.013.033-.023.063-.038.093zm.495-1.346a.916.916 0 01.025-.085c-.217.608-.634 1.085-1.21 1.441a12.18 12.18 0 00.344-5.474c.51-.34.884-.757 1.108-1.33.079.343.132.671.182 1.017-.002-.02-.002-.038-.005-.058.003.033.008.066.01.101l-.007-.043a11.768 11.768 0 01-.425 4.346l.013-.033c-.01.04-.023.078-.035.119z" fill="#AF1C08"/><path fill-rule="evenodd" clip-rule="evenodd" d="M128.505 10.94c.028.022.056.04.084.063-.023-.023-.051-.043-.074-.066l-.01.003z" fill="#AF1C08"/><path fill-rule="evenodd" clip-rule="evenodd" d="M128.493 10.93l-.031.025.044-.015-.013-.01z" fill="#AF1C08"/></svg>