<svg width="192" height="46" fill="none" xmlns="http://www.w3.org/2000/svg"><path d="M.603 44a328.896 328.896 0 01.266-2.138l.265-2.114a641.997 641.997 0 01.27-2.165h.819a3001.026 3001.026 0 001.058 2.587l1.017 2.493h.063l1.008-2.488c.17-.426.341-.849.513-1.269.17-.42.348-.861.53-1.323h.82c.045.366.087.718.125 1.058.042.339.089.706.14 1.102l.261 2.137.135 1.09c.042.333.084.676.126 1.03H7.24a948.65 948.65 0 00-.373-3.06l-.234-1.917h-.059l-.814 2.066-.594 1.507L4.612 44H4.06a140.26 140.26 0 00-.77-1.904c-.138-.341-.272-.673-.405-.994l-.841-2.079h-.059l-.234 1.912-.175 1.44c-.06.514-.125 1.055-.194 1.625H.603zm10.774.099c-.534 0-.974-.102-1.319-.306a1.902 1.902 0 01-.77-.837 2.802 2.802 0 01-.251-1.215c0-.45.082-.849.247-1.197.165-.348.402-.62.711-.814.31-.198.678-.297 1.107-.297.378 0 .702.073.972.22.273.147.483.363.63.648.147.282.22.631.22 1.048a4.568 4.568 0 01-.035.568l-.653-.329c.006-.048.01-.093.01-.135.002-.045.004-.089.004-.13 0-.423-.105-.745-.315-.964-.21-.221-.485-.333-.824-.333-.273 0-.508.071-.706.212-.195.138-.347.33-.455.576a2.074 2.074 0 00-.162.842v.103c0 .348.06.648.18.9a1.3 1.3 0 00.545.585c.246.135.558.203.936.203a3.086 3.086 0 00.913-.14c.156-.048.305-.111.446-.189l.031.67a2.214 2.214 0 01-.396.167c-.15.045-.315.08-.495.104-.18.027-.37.04-.571.04zm-2.03-2.182v-.532l3.087-.026.455.17v.387H9.347zM13.51 44l.72-.788c.24-.264.477-.526.71-.787l.802-.909-.01.36-.692-.774a797.62 797.62 0 01-.703-.783c-.23-.258-.466-.519-.706-.783l.877-.027a754.951 754.951 0 001.107 1.282l.595.689h.431v.531h-.413l-.684.765c-.18.204-.362.408-.545.612l-.54.612h-.95zm3.032 0v-4.464h.725V44h-.724zm2.804 0l-.558-.621a85.63 85.63 0 00-.553-.612l-.68-.756h-.387v-.531h.432l.576-.688.535-.626.536-.63h.896l-.694.783-.683.774-.689.783-.036-.36.801.904.729.792c.243.261.485.524.724.788h-.949zm4.806-.117v-4.23l.333.495h-2.417l.338-.495c-.01.192-.02.38-.032.563a98.827 98.827 0 00-.072 1.237 6.09 6.09 0 01-.094.796 3.98 3.98 0 01-.19.707 2.422 2.422 0 01-.3.567l-.73-.099c.084-.081.171-.203.261-.364.09-.166.17-.388.239-.666a6.18 6.18 0 00.153-1.076c.02-.369.04-.69.058-.963.018-.276.035-.549.05-.819h3.136v4.347h-.733zm-3.596 1.359v-1.854h5.014v1.854h-.649l-.036-1.341.167.099h-3.978l.166-.099-.031 1.341h-.653zm6.333.513c.12-.294.24-.591.36-.891.12-.3.24-.597.36-.891v.189c-.114-.306-.228-.617-.342-.931a93.896 93.896 0 00-.338-.919l-.297-.81c-.117-.32-.238-.649-.364-.985a640.21 640.21 0 00-.36-.981l.796-.032.378 1.135.378 1.129.473 1.435h.08l.518-1.44c.135-.374.269-.746.4-1.115l.401-1.112h.788l-.28.697c-.086.223-.184.469-.292.739-.105.27-.23.59-.378.962l-.495 1.256-.576 1.454c-.156.398-.298.76-.427 1.084l-.783.027zM31.046 44v-4.464l.738-.032V44h-.738zm.441-1.953v-.603h2.867v.603h-2.867zM34.021 44v-4.464h.738V44h-.738zm3.26.09c-.266 0-.5-.051-.701-.153a1.166 1.166 0 01-.473-.445 1.362 1.362 0 01-.166-.694 1.3 1.3 0 01.13-.611c.087-.168.201-.305.342-.41.141-.105.297-.186.468-.243.171-.06.342-.105.513-.135l1.4-.243c.012-.303-.029-.531-.122-.684a.671.671 0 00-.382-.315 1.758 1.758 0 00-.55-.081c-.101 0-.21.008-.328.023a4.582 4.582 0 00-.783.189 5.574 5.574 0 00-.454.175l-.04-.68c.107-.044.229-.088.364-.13a5.436 5.436 0 01.913-.194c.162-.018.326-.027.49-.027.334 0 .62.053.86.158.243.105.43.27.558.495.13.225.194.519.194.882V44h-.675l-.04-.635h-.073c-.093.12-.21.236-.35.347a1.89 1.89 0 01-.491.274 1.696 1.696 0 01-.603.104zm.217-.617c.159 0 .318-.032.477-.099.159-.066.307-.163.445-.292.141-.132.26-.297.356-.495l.004-.963a1.14 1.14 0 01-.193.081 3.626 3.626 0 01-.356.095c-.156.033-.373.075-.652.126a1.56 1.56 0 00-.455.148.8.8 0 00-.315.275.745.745 0 00-.112.418c0 .258.076.441.23.549a1 1 0 00.57.157zm3.34 2.282v-6.219l.674-.045.018.58h.077c.09-.116.204-.223.342-.319a1.854 1.854 0 011.062-.324c.408 0 .754.102 1.04.306.287.201.506.477.656.828.15.351.225.748.225 1.193 0 .416-.07.803-.211 1.16a1.95 1.95 0 01-.635.86c-.282.216-.636.324-1.062.324a1.785 1.785 0 01-1.008-.301 1.9 1.9 0 01-.369-.36h-.067v2.29l-.743.027zm1.961-2.322c.321 0 .582-.08.783-.239.204-.159.353-.364.446-.616.096-.255.144-.528.144-.819 0-.303-.051-.579-.153-.828a1.335 1.335 0 00-.455-.603c-.204-.15-.463-.225-.778-.225-.156 0-.31.024-.46.072a1.398 1.398 0 00-.746.544v1.985c.09.153.193.283.31.392.12.108.255.192.405.252.15.056.318.085.504.085zm5.301.666c-.369 0-.694-.063-.977-.189a2.049 2.049 0 01-.701-.522 2.31 2.31 0 01-.432-.752 2.786 2.786 0 01-.145-.895c0-.447.09-.843.27-1.188.183-.348.441-.622.774-.823.336-.201.735-.302 1.197-.302.358 0 .674.059.95.175.276.117.51.281.702.491.192.21.337.456.437.738a2.7 2.7 0 01.148.909c0 .441-.09.84-.27 1.197a2.1 2.1 0 01-.77.85c-.33.208-.724.311-1.183.311zm0-.648c.327 0 .599-.081.814-.243.216-.162.378-.373.486-.634.108-.261.163-.539.163-.833 0-.336-.06-.629-.18-.877a1.372 1.372 0 00-.509-.581 1.43 1.43 0 00-.779-.207c-.323 0-.596.074-.819.22-.222.148-.39.347-.504.599a2.077 2.077 0 00-.166.846c0 .294.054.572.162.833.111.26.277.472.5.634.221.162.499.243.832.243zm6.294.432v-4.23l.333.495H52.31l.338-.495c-.01.192-.02.38-.032.563a98.827 98.827 0 00-.072 1.237 6.09 6.09 0 01-.094.796 3.98 3.98 0 01-.19.707 2.422 2.422 0 01-.3.567l-.73-.099c.084-.081.171-.203.261-.364.09-.166.17-.388.239-.666a6.18 6.18 0 00.153-1.076c.02-.369.04-.69.058-.963.018-.276.035-.549.05-.819h3.136v4.347h-.733zm-3.596 1.359v-1.854h5.014v1.854h-.649l-.036-1.341.167.099h-3.978l.166-.099-.031 1.341h-.653zM56.693 44v-4.464l.738-.032V44h-.738zm.44-1.953v-.603H60v.603h-2.866zM59.668 44v-4.464h.738V44h-.738zm4.148.099c-.37 0-.695-.063-.977-.189a2.049 2.049 0 01-.702-.522 2.31 2.31 0 01-.432-.752 2.786 2.786 0 01-.144-.895c0-.447.09-.843.27-1.188.183-.348.441-.622.774-.823.336-.201.735-.302 1.197-.302.357 0 .674.059.95.175.276.117.51.281.702.491.192.21.337.456.436.738a2.7 2.7 0 01.149.909c0 .441-.09.84-.27 1.197-.18.357-.437.64-.77.85-.33.208-.724.311-1.183.311zm0-.648c.327 0 .598-.081.814-.243.216-.162.378-.373.486-.634.108-.261.162-.539.162-.833 0-.336-.06-.629-.18-.877a1.372 1.372 0 00-.508-.581 1.43 1.43 0 00-.779-.207c-.324 0-.597.074-.819.22-.222.148-.39.347-.504.599a2.077 2.077 0 00-.166.846c0 .294.054.572.162.833.11.26.277.472.5.634.221.162.499.243.832.243zm5.464.648c-.534 0-.973-.102-1.318-.306a1.902 1.902 0 01-.77-.837 2.802 2.802 0 01-.252-1.215c0-.45.083-.849.248-1.197a1.9 1.9 0 01.71-.814c.31-.198.679-.297 1.108-.297.378 0 .702.073.972.22.273.147.483.363.63.648.147.282.22.631.22 1.048a4.568 4.568 0 01-.036.568l-.652-.329c.006-.048.009-.093.009-.135a1.96 1.96 0 00.004-.13c0-.423-.105-.745-.315-.964-.21-.221-.484-.333-.823-.333-.273 0-.509.071-.707.212a1.35 1.35 0 00-.454.576 2.074 2.074 0 00-.162.842v.103c0 .348.06.648.18.9a1.3 1.3 0 00.544.585c.246.135.558.203.936.203.141 0 .29-.011.446-.032.159-.024.315-.06.468-.108.156-.048.304-.111.445-.189l.032.67a2.214 2.214 0 01-.396.167c-.15.045-.315.08-.495.104-.18.027-.37.04-.572.04zm-2.03-2.182v-.532l3.088-.026.454.17v.387H67.25zM73.666 44v-4.464l.72-.027v3.411h.063l.958-1.48.621-.959c.207-.321.412-.636.617-.945h.769V44h-.715v-3.389h-.063l-.95 1.463-.626.968c-.206.32-.413.64-.62.958h-.774zm5.159 0v-4.464l.738-.032V44h-.738zm.44-1.953v-.603h2.867v.603h-2.866zM81.799 44v-4.464h.738V44h-.738zm4.625 1.755v-2.097h-.059a1.59 1.59 0 01-.67.387 1.534 1.534 0 01-.414.054 1.47 1.47 0 01-.756-.184 1.513 1.513 0 01-.509-.514 2.501 2.501 0 01-.292-.751 4.099 4.099 0 01-.095-.895c0-.448.062-.847.185-1.198.123-.35.304-.627.544-.828.243-.2.54-.301.891-.301.165 0 .317.023.455.068.14.041.265.098.373.17.111.07.203.143.275.221h.072v-2.475l.733-.09v2.565h.072a1.452 1.452 0 01.648-.392 1.49 1.49 0 01.455-.067 1.369 1.369 0 011.201.661c.138.21.242.456.31.739.07.281.104.59.104.926 0 .42-.055.808-.166 1.162-.111.354-.288.64-.531.859-.24.216-.557.324-.95.324a1.534 1.534 0 01-1.084-.441h-.059v2.07l-.733.027zm-.905-2.3a1.04 1.04 0 00.657-.224c.093-.073.176-.161.248-.266v-2.453a.969.969 0 00-.257-.238 1.125 1.125 0 00-.32-.14 1.178 1.178 0 00-.337-.049c-.264 0-.48.073-.648.22a1.26 1.26 0 00-.364.595 3.014 3.014 0 00-.113.859c0 .225.018.44.054.644.04.203.102.385.19.544.086.156.202.28.346.373.147.09.328.136.544.136zm2.543 0c.285 0 .51-.078.675-.233a1.32 1.32 0 00.35-.626c.073-.258.109-.537.109-.837 0-.321-.04-.608-.117-.86a1.26 1.26 0 00-.365-.593c-.165-.148-.38-.221-.643-.221-.114 0-.228.017-.342.05a1 1 0 00-.572.378v2.452c.108.156.237.277.387.364.15.084.323.127.518.127zm4.977.644c-.368 0-.694-.063-.976-.189a2.049 2.049 0 01-.702-.522 2.31 2.31 0 01-.432-.752 2.786 2.786 0 01-.144-.895c0-.447.09-.843.27-1.188.183-.348.441-.622.774-.823.336-.201.735-.302 1.197-.302.357 0 .673.059.95.175.276.117.51.281.702.491.191.21.337.456.436.738a2.7 2.7 0 01.148.909c0 .441-.09.84-.27 1.197-.18.357-.436.64-.769.85-.33.208-.724.311-1.183.311zm0-.648c.328 0 .599-.081.815-.243.216-.162.378-.373.486-.634.108-.261.162-.539.162-.833 0-.336-.06-.629-.18-.877a1.372 1.372 0 00-.508-.581 1.43 1.43 0 00-.779-.207c-.324 0-.597.074-.819.22-.222.148-.39.347-.504.599a2.077 2.077 0 00-.166.846c0 .294.053.572.162.833.11.26.277.472.499.634.222.162.5.243.832.243zm3.381 2.304v-6.219l.675-.045.018.58h.077c.09-.116.204-.223.342-.319a1.854 1.854 0 011.062-.324c.408 0 .754.102 1.04.306.287.201.506.477.656.828.15.351.225.748.225 1.193 0 .416-.07.803-.211 1.16a1.95 1.95 0 01-.635.86c-.282.216-.636.324-1.062.324a1.785 1.785 0 01-1.008-.301 1.9 1.9 0 01-.369-.36h-.067v2.29l-.743.027zm1.962-2.322c.321 0 .582-.08.783-.239.204-.159.353-.364.446-.616.096-.255.144-.528.144-.819 0-.303-.051-.579-.153-.828a1.335 1.335 0 00-.455-.603c-.204-.15-.463-.225-.778-.225-.156 0-.31.024-.46.072a1.398 1.398 0 00-.746.544v1.985c.09.153.193.283.31.392.12.108.255.192.405.252.15.056.318.085.504.085zm3.006.567l.108-.959c.036-.314.071-.627.104-.935l.067-.613c.039-.327.077-.654.113-.98l.108-.977h.81c.123.288.246.579.369.873l.373.869.72 1.691h.068l.715-1.691a253.015 253.015 0 01.738-1.742h.797l.108.981.112.981.068.617a291.701 291.701 0 00.211 1.885h-.706c-.036-.342-.074-.687-.113-1.035a92.316 92.316 0 00-.112-1.04l-.14-1.313h-.067l-.572 1.404c-.132.33-.265.66-.4.99l-.405.994h-.536c-.138-.333-.276-.663-.414-.99-.135-.33-.27-.657-.405-.981l-.589-1.418h-.068l-.144 1.301-.117 1.044c-.036.348-.073.696-.112 1.044h-.689zm7.816.09c-.267 0-.501-.051-.702-.153a1.167 1.167 0 01-.473-.445 1.362 1.362 0 01-.166-.694 1.3 1.3 0 01.13-.611c.087-.168.201-.305.342-.41.141-.105.297-.186.468-.243.171-.06.342-.105.513-.135l1.4-.243c.012-.303-.029-.531-.122-.684a.67.67 0 00-.382-.315 1.758 1.758 0 00-.549-.081 2.6 2.6 0 00-.329.023 4.59 4.59 0 00-.783.189 5.566 5.566 0 00-.454.175l-.041-.68c.108-.044.23-.088.365-.13a5.423 5.423 0 01.913-.194c.162-.018.326-.027.491-.027.333 0 .619.053.859.158.243.105.429.27.558.495.129.225.194.519.194.882V44h-.675l-.041-.635h-.072c-.093.12-.21.236-.351.347a1.886 1.886 0 01-.49.274 1.696 1.696 0 01-.603.104zm.216-.617c.159 0 .318-.032.477-.099.159-.066.307-.163.445-.292.141-.132.26-.297.356-.495l.004-.963a1.132 1.132 0 01-.193.081 3.644 3.644 0 01-.356.095c-.156.033-.373.075-.652.126a1.56 1.56 0 00-.455.148.8.8 0 00-.315.275.745.745 0 00-.112.418c0 .258.076.441.229.549.156.105.347.157.572.157zm7.047 1.769l-.036-1.341.167.099h-3.839v-4.464l.743-.032v4.379l-.45-.495h4.067v1.854h-.653zm-.774-1.359v-4.347h.743v4.347h-.743zm2.296.117v-4.464l.72-.027v3.411h.063l.958-1.48.621-.959c.207-.321.413-.636.617-.945h.769V44h-.715v-3.389h-.063l-.95 1.463-.625.968-.621.958h-.774zm7.157.099c-.369 0-.695-.063-.977-.189a2.049 2.049 0 01-.702-.522 2.31 2.31 0 01-.432-.752 2.786 2.786 0 01-.144-.895c0-.447.09-.843.27-1.188.183-.348.441-.622.774-.823.336-.201.735-.302 1.197-.302.357 0 .674.059.95.175.276.117.51.281.702.491.192.21.337.456.436.738a2.7 2.7 0 01.149.909c0 .441-.09.84-.27 1.197-.18.357-.437.64-.77.85-.33.208-.724.311-1.183.311zm0-.648c.327 0 .598-.081.814-.243.216-.162.378-.373.486-.634.108-.261.162-.539.162-.833 0-.336-.06-.629-.18-.877a1.371 1.371 0 00-.508-.581 1.431 1.431 0 00-.779-.207c-.324 0-.597.074-.819.22-.222.148-.39.347-.504.599a2.077 2.077 0 00-.166.846c0 .294.054.572.162.833.111.26.277.472.499.634.222.162.5.243.833.243zm3.381.549v-4.464l.738-.032V44h-.738zm.441-1.953v-.603h2.866v.603h-2.866zM131.5 44v-4.464h.738V44h-.738zm2.15 0v-4.464l.738-.032V44h-.738zm.441-1.953v-.603h2.866v.603h-2.866zM136.624 44v-4.464h.738V44h-.738zm4.148.099c-.369 0-.695-.063-.977-.189a2.049 2.049 0 01-.702-.522 2.31 2.31 0 01-.432-.752 2.786 2.786 0 01-.144-.895c0-.447.09-.843.27-1.188.183-.348.441-.622.774-.823.336-.201.735-.302 1.197-.302.357 0 .674.059.95.175.276.117.51.281.702.491.192.21.337.456.436.738a2.7 2.7 0 01.149.909c0 .441-.09.84-.27 1.197-.18.357-.437.64-.77.85-.33.208-.724.311-1.183.311zm0-.648c.327 0 .598-.081.814-.243.216-.162.378-.373.486-.634.108-.261.162-.539.162-.833 0-.336-.06-.629-.18-.877a1.371 1.371 0 00-.508-.581 1.431 1.431 0 00-.779-.207c-.324 0-.597.074-.819.22-.222.148-.39.347-.504.599a2.077 2.077 0 00-.166.846c0 .294.054.572.162.833.111.26.277.472.499.634.222.162.5.243.833.243zm5.464.648c-.534 0-.973-.102-1.318-.306a1.903 1.903 0 01-.77-.837 2.802 2.802 0 01-.252-1.215c0-.45.083-.849.248-1.197.165-.348.402-.62.711-.814.309-.198.678-.297 1.107-.297.378 0 .702.073.972.22.273.147.483.363.63.648.147.282.22.631.22 1.048a4.568 4.568 0 01-.036.568l-.652-.329c.006-.048.009-.093.009-.135a1.96 1.96 0 00.004-.13c0-.423-.105-.745-.315-.964-.21-.221-.484-.333-.823-.333-.273 0-.509.071-.707.212a1.35 1.35 0 00-.454.576 2.074 2.074 0 00-.162.842v.103c0 .348.06.648.18.9a1.3 1.3 0 00.544.585c.246.135.558.203.936.203.141 0 .29-.011.446-.032.159-.024.315-.06.468-.108.156-.048.304-.111.445-.189l.032.67a2.214 2.214 0 01-.396.167c-.15.045-.315.08-.495.104a3.86 3.86 0 01-.572.04zm-2.029-2.182v-.532l3.087-.026.454.17v.387h-3.541zm7.526 2.173c-.267 0-.501-.051-.702-.153a1.165 1.165 0 01-.472-.445 1.362 1.362 0 01-.167-.694 1.3 1.3 0 01.131-.611c.087-.168.201-.305.342-.41.141-.105.297-.186.468-.243.171-.06.342-.105.513-.135l1.399-.243c.012-.303-.028-.531-.121-.684a.672.672 0 00-.383-.315 1.758 1.758 0 00-.549-.081 2.59 2.59 0 00-.328.023 4.574 4.574 0 00-.783.189 5.581 5.581 0 00-.455.175l-.04-.68c.108-.044.229-.088.364-.13a5.45 5.45 0 01.914-.194 4.43 4.43 0 01.49-.027c.333 0 .62.053.86.158.243.105.429.27.558.495.129.225.193.519.193.882V44h-.675l-.04-.635h-.072c-.093.12-.21.236-.351.347a1.893 1.893 0 01-.491.274 1.696 1.696 0 01-.603.104zm.216-.617c.159 0 .318-.032.477-.099.159-.066.308-.163.446-.292a1.66 1.66 0 00.355-.495l.005-.963a1.147 1.147 0 01-.194.081 3.608 3.608 0 01-.355.095c-.156.033-.374.075-.653.126-.171.03-.322.079-.454.148a.8.8 0 00-.315.275.745.745 0 00-.113.418c0 .258.077.441.23.549a.998.998 0 00.571.157zm3.34.527v-4.464h3.006v.608h-2.705l.441-.491V44h-.742zm5.968.099c-.534 0-.974-.102-1.319-.306a1.901 1.901 0 01-.769-.837 2.802 2.802 0 01-.252-1.215c0-.45.082-.849.247-1.197.165-.348.402-.62.711-.814.309-.198.678-.297 1.107-.297.378 0 .702.073.972.22.273.147.483.363.63.648.147.282.221.631.221 1.048a4.568 4.568 0 01-.036.568l-.653-.329c.006-.048.009-.093.009-.135.003-.045.005-.089.005-.13 0-.423-.105-.745-.315-.964-.21-.221-.485-.333-.824-.333-.273 0-.508.071-.706.212-.195.138-.347.33-.455.576a2.074 2.074 0 00-.162.842v.103c0 .348.06.648.18.9s.302.447.545.585c.246.135.558.203.936.203.141 0 .289-.011.445-.032.159-.024.315-.06.468-.108.156-.048.305-.111.446-.189l.031.67a2.214 2.214 0 01-.396.167c-.15.045-.315.08-.495.104-.18.027-.37.04-.571.04zm-2.03-2.182v-.532l3.087-.026.455.17v.387h-3.542zM163.919 44v-4.464l.738-.032V44h-.738zm.441-1.953v-.603h2.867v.603h-2.867zM166.894 44v-4.464h.738V44h-.738zm3.189 0v-4.347l.247.49h-1.791v-.607h3.83v.608h-1.791l.247-.491V44h-.742zm5.147.09c-.483 0-.894-.102-1.233-.306a2.02 2.02 0 01-.77-.832 2.601 2.601 0 01-.265-1.188c0-.442.084-.838.252-1.189.171-.354.418-.633.742-.837.327-.203.725-.306 1.193-.306a3.22 3.22 0 01.994.166c.15.049.284.106.401.172l-.068.684a2.764 2.764 0 00-.891-.328 2.144 2.144 0 00-.351-.032c-.456 0-.822.15-1.098.45-.276.297-.414.699-.414 1.206 0 .318.06.606.18.864.123.255.306.458.549.608.246.146.551.22.914.22.129 0 .256-.012.382-.036.129-.024.257-.059.383-.103a1.98 1.98 0 00.364-.185l.063.68a2.218 2.218 0 01-.346.148 3.262 3.262 0 01-.981.144zm3.475-.09v-4.347l.247.49h-1.791v-.607h3.83v.608H179.2l.247-.491V44h-.742zm3.197 0v-4.464h2.07c.354 0 .637.044.85.13.213.088.366.21.459.37.096.155.144.341.144.557 0 .282-.073.509-.22.68-.144.171-.323.29-.536.355v.059c.144.027.282.08.414.157a.878.878 0 01.333.338c.09.147.135.343.135.59 0 .233-.052.444-.157.63-.102.182-.285.328-.549.436-.261.108-.633.162-1.116.162h-1.827zm.724-.599h1.04a2.3 2.3 0 00.679-.08c.168-.054.285-.134.351-.239a.681.681 0 00.104-.383c0-.255-.09-.434-.27-.54-.177-.105-.437-.157-.779-.157h-1.323v-.544h1.247c.249 0 .445-.03.589-.09a.623.623 0 00.306-.253.71.71 0 00.095-.364c0-.228-.075-.387-.225-.477-.147-.093-.357-.14-.63-.14h-1.184v3.268zm6.046.698a2.37 2.37 0 01-.976-.189 2.049 2.049 0 01-.702-.522 2.31 2.31 0 01-.432-.752 2.786 2.786 0 01-.144-.895c0-.447.09-.843.27-1.188.183-.348.441-.622.774-.823.336-.201.735-.302 1.197-.302.357 0 .673.059.949.175.276.117.51.281.702.491.192.21.338.456.437.738a2.7 2.7 0 01.148.909c0 .441-.09.84-.27 1.197-.18.357-.436.64-.769.85-.33.208-.725.311-1.184.311zm0-.648c.327 0 .599-.081.815-.243.216-.162.378-.373.486-.634.108-.261.162-.539.162-.833 0-.336-.06-.629-.18-.877a1.373 1.373 0 00-.509-.581 1.428 1.428 0 00-.778-.207c-.324 0-.597.074-.819.22-.222.148-.39.347-.504.599a2.077 2.077 0 00-.167.846c0 .294.054.572.162.833.111.26.278.472.5.634.222.162.499.243.832.243z" fill="#133D8B"/><path fill-rule="evenodd" clip-rule="evenodd" d="M161.195 31.855c-.421-.296-.749-.616-.979-.95a3.004 3.004 0 01-.46-1.037 4.733 4.733 0 01-.118-1.127v-10.59a6.573 6.573 0 01.045-.815c.038-.401.134-.853.295-1.37a4.795 4.795 0 01.824-1.49c.378-.49.911-.89 1.593-1.21.682-.318 1.558-.49 2.626-.497 1.015.007 1.853.179 2.515.505.659.325 1.179.742 1.565 1.26.379.512.652 1.06.831 1.638a8.18 8.18 0 01.325 1.639c.046.52.066.942.059 1.275v9.655c.007.387-.031.763-.119 1.127a2.986 2.986 0 01-.46 1.037c-.229.334-.555.652-.979.95h7.34c-.422-.296-.75-.616-.98-.95a3.004 3.004 0 01-.46-1.037 4.785 4.785 0 01-.118-1.127v-9.61a13.35 13.35 0 01.065-1.446 7.926 7.926 0 01.349-1.677c.184-.57.467-1.106.861-1.593.394-.482.934-.884 1.608-1.18.682-.302 1.543-.459 2.588-.466.927.007 1.705.149 2.336.421.631.276 1.134.652 1.512 1.114.387.467.675.995.877 1.573.191.57.325 1.164.393 1.772.066.609.096 1.195.089 1.75v9.342c.007.387-.03.763-.119 1.127a3.002 3.002 0 01-.459 1.037c-.23.334-.548.652-.98.95H191c-.422-.296-.75-.616-.98-.95a3.002 3.002 0 01-.459-1.037 4.786 4.786 0 01-.119-1.127v-10.41a17.04 17.04 0 00-.119-2.128 10.375 10.375 0 00-.57-2.366 6.892 6.892 0 00-1.328-2.202c-.594-.667-1.394-1.21-2.397-1.616-.999-.41-2.262-.616-3.774-.631a10.566 10.566 0 00-1.884.156 8.848 8.848 0 00-2.01.616 8.01 8.01 0 00-1.972 1.275c-.646.548-1.24 1.26-1.787 2.136-.49-.956-1.053-1.719-1.705-2.285a6.784 6.784 0 00-2.017-1.26 8.41 8.41 0 00-2.01-.525 11.86 11.86 0 00-1.654-.11 8.915 8.915 0 00-2.285.267c-.8.184-1.581.54-2.343 1.068-.763.533-1.447 1.298-2.048 2.313v-3.47a3.89 3.89 0 01-1.113.556 4.635 4.635 0 01-1.245.156h-3.338c.421.298.75.617.979.95.223.326.379.674.46 1.038.081.363.126.742.119 1.126v15.349c.007.386-.038.762-.119 1.126a2.985 2.985 0 01-.46 1.038c-.229.333-.555.651-.979.95h7.352v-.003zm-13.793 0c-.483-.296-.854-.616-1.114-.957a2.99 2.99 0 01-.533-1.053 4.03 4.03 0 01-.134-1.106v-9.166c.008-1.275.157-2.32.445-3.15.29-.832.674-1.483 1.149-1.95.482-.467 1-.793 1.58-.987a5.142 5.142 0 011.72-.276c.482 0 .927.053 1.32.172a3.92 3.92 0 011.127.54v-4.36a6.533 6.533 0 00-.778-.142 8.692 8.692 0 00-.778-.037 6.24 6.24 0 00-2.053.348 6.663 6.663 0 00-1.684.904c-.505.371-.942.77-1.32 1.202a9.206 9.206 0 00-.95 1.283V9.56a3.44 3.44 0 01-1.075.555 4.535 4.535 0 01-1.238.156h-3.247c.422.298.75.616.98.95a3 3 0 01.46 1.037c.08.364.126.743.118 1.127v15.349a4.77 4.77 0 01-.118 1.126 3.004 3.004 0 01-.46 1.038c-.23.333-.555.651-.98.95h7.563v.007zm-45.828-21.578l-2.492 3.115h2.492v15.35c.007.386-.038.762-.119 1.126a2.986 2.986 0 01-.46 1.037c-.229.334-.555.652-.979.95h7.565c-.483-.296-.854-.616-1.114-.957a2.99 2.99 0 01-.533-1.053 4.029 4.029 0 01-.134-1.106v-15.35h4.76c.222-.007.444.008.659.039.215.03.414.096.609.207.191.103.363.275.512.512v-4.05c-.096.03-.23.058-.401.104a2.463 2.463 0 01-.533.073H105.8V6.58c-.007-.2.008-.482.061-.838a3.21 3.21 0 01.371-1.091c.207-.379.533-.697.993-.957.459-.26 1.098-.401 1.913-.409a5.27 5.27 0 011.425.172 4.58 4.58 0 011.022.409L114.698.35a15.804 15.804 0 00-3.201-.31c-1.409 0-2.715.171-3.916.504-1.202.341-2.248.831-3.144 1.483a6.846 6.846 0 00-2.098 2.403c-.505.95-.758 2.04-.763 3.263v2.583h-.002zM82.4 31.855c-.422-.296-.75-.616-.98-.95a2.995 2.995 0 01-.46-1.037 4.764 4.764 0 01-.118-1.127V17.884a7.544 7.544 0 01.045-.911 5.56 5.56 0 01.31-1.313c.165-.475.445-.935.839-1.371.386-.437.934-.8 1.631-1.084.697-.282 1.593-.429 2.692-.436 1.118 0 2.083.2 2.89.593.809.394 1.432.95 1.87 1.677.444.72.658 1.58.666 2.58v11.122c.007.387-.03.763-.119 1.127-.08.363-.237.712-.46 1.037-.23.334-.555.652-.98.95h7.34c-.42-.296-.75-.616-.979-.95a2.995 2.995 0 01-.46-1.037 4.77 4.77 0 01-.118-1.127V16.417c-.008-1.245-.237-2.313-.682-3.204a5.84 5.84 0 00-1.818-2.179 7.768 7.768 0 00-2.626-1.245 11.797 11.797 0 00-3.108-.401 10.621 10.621 0 00-4.005.793 7.368 7.368 0 00-1.711.987c-.513.401-.92.853-1.225 1.378V9.564c-.371.26-.742.445-1.114.556a4.622 4.622 0 01-1.244.157h-3.427c.422.297.75.616.98.949.222.326.379.674.46 1.038.08.363.126.742.118 1.126v15.349a4.75 4.75 0 01-.118 1.126 3.004 3.004 0 01-.46 1.038c-.23.333-.555.651-.98.95h7.35v.002zM65.358 10.276c.422.298.75.617.98.95.222.326.379.674.46 1.038.08.363.126.742.118 1.126v15.349a4.75 4.75 0 01-.118 1.126 3.004 3.004 0 01-.46 1.038c-.23.333-.555.651-.98.95h7.34c-.421-.296-.75-.617-.98-.95a2.995 2.995 0 01-.459-1.038 4.77 4.77 0 01-.118-1.126V9.562a3.89 3.89 0 01-1.114.555 4.625 4.625 0 01-1.245.157h-3.424v.002z" fill="#AF1C08"/><path fill-rule="evenodd" clip-rule="evenodd" d="M46.449 10.277l-2.447 4.984a9.446 9.446 0 012.09-1.03c.72-.253 1.468-.422 2.256-.52a19.236 19.236 0 012.507-.142c.869 0 1.7.03 2.5.088.792.059 1.55.134 2.262.223L42.535 31.855h19.798l2.58-5.116c-.54.326-1.17.624-1.89.884-.728.26-1.594.467-2.611.624-1.008.149-2.225.23-3.641.23-.586 0-1.217-.016-1.899-.046a53.299 53.299 0 01-4.242-.356l12.592-17.796H46.45v-.002z" fill="#133D8B"/><path fill-rule="evenodd" clip-rule="evenodd" d="M24.737 14.415c.92-.497 1.81-.869 2.669-1.098.868-.238 1.631-.394 2.298-.46.666-.066 1.156-.096 1.482-.088 1.343.007 2.358.26 3.047.75.697.49 1.046 1.179 1.046 2.052 0 .548-.134 1-.402 1.356-.268.349-.651.647-1.164.876-.52.238-1.141.445-1.891.632-.742.192-1.593.394-2.55.608-.674.15-1.364.31-2.068.498-.705.192-1.379.429-2.033.72a7.054 7.054 0 00-1.765 1.105 4.871 4.871 0 00-1.232 1.684c-.303.674-.46 1.49-.467 2.447.008 1.386.31 2.61.912 3.664.593 1.053 1.431 1.868 2.507 2.461 1.083.594 2.343.897 3.79.904.49 0 .972-.037 1.439-.103a10.5 10.5 0 001.409-.296l2.848-3.56c-.666.2-1.336.349-1.987.437-.651.096-1.283.141-1.884.141-1.015-.015-1.825-.164-2.431-.444-.601-.29-1.053-.639-1.351-1.053a3.63 3.63 0 01-.586-1.245c-.096-.409-.134-.734-.126-.994.008-.675.149-1.238.422-1.692a3.357 3.357 0 011.075-1.106 6.338 6.338 0 011.447-.682 15.951 15.951 0 011.55-.437c.735-.171 1.371-.318 1.907-.444a11.9 11.9 0 001.47-.444 6.933 6.933 0 001.342-.712v6.984c.008.972.157 1.772.43 2.396.282.631.646 1.118 1.09 1.474.437.349.912.609 1.41.763.504.164.98.26 1.431.295.444.046.816.06 1.111.053h.667l2.136-2.982h-.844c-.6-.022-1.14-.11-1.623-.282a2.167 2.167 0 01-1.141-.935c-.29-.444-.43-1.09-.437-1.941V17.04a12.744 12.744 0 00-.134-1.922 7.398 7.398 0 00-.593-2.04 5.595 5.595 0 00-1.329-1.846c-.593-.555-1.378-1-2.365-1.335-.98-.333-2.21-.505-3.68-.513-.734 0-1.438.046-2.105.119-.674.073-1.32.172-1.942.283l-2.805 4.628zM6.673 19.798l7.83 10.456c.394.533.77.934 1.15 1.187.37.26.77.421 1.216.49.437.065.957.08 1.558.06.6-.03 1.32-.06 2.172-.088l1.691-.046a15.183 15.183 0 01-2.025-1.669 18.86 18.86 0 01-1.49-1.669l-5.918-7.43a12.8 12.8 0 00-1.689-1.78l8.052-9.032h-7.252c.296.2.54.414.727.651.192.237.29.505.296.816-.015.295-.127.646-.349 1.06a9.508 9.508 0 01-.757 1.202c-.29.394-.54.704-.763.942l-4.449 4.85z" fill="#133D8B"/><path fill-rule="evenodd" clip-rule="evenodd" d="M0 .712c.422.295.75.616.98.942.222.333.378.682.46 1.045.08.364.125.743.118 1.126v24.916c.007.387-.038.763-.119 1.127-.08.363-.237.712-.46 1.037-.23.334-.555.652-.979.95h7.34c-.422-.296-.75-.616-.98-.95a2.996 2.996 0 01-.46-1.037 4.767 4.767 0 01-.118-1.127V0a3.91 3.91 0 01-1.11.555 4.625 4.625 0 01-1.246.157H0z" fill="#133D8B"/><path fill-rule="evenodd" clip-rule="evenodd" d="M68.644.43a4.13 4.13 0 014.097 4.196 4.191 4.191 0 01-4.221 4.123 4.13 4.13 0 01-4.098-4.196A4.195 4.195 0 0168.644.429zm59.872 10.387h.002c-.005-.008-.008-.013-.013-.018-.002.003-.005.005-.007.005l.018.013zM121.2 32.03c.016.004.031.012.047.017v-.002a.521.521 0 00-.047-.016z" fill="#AF1C08"/><path fill-rule="evenodd" clip-rule="evenodd" d="M124.927 8.875c-6.61 0-12.004 5.393-12.004 12.004 0 6.61 5.391 12.003 12.004 12.003 6.61 0 12.004-5.393 12.004-12.003s-5.394-12.004-12.004-12.004zm-8.002 18.453c-1.108-.743-2.025-1.55-2.671-2.447a10.05 10.05 0 01.3-4.813c.692 1.056 1.728 2.01 3.01 2.891-.528 1.558-.762 3.033-.639 4.369zm-2.133-7.944c.646-1.669 1.704-3.191 3.052-4.474.596.879 1.513 1.686 2.639 2.457-1.113 1.563-2.027 3.204-2.661 4.873-1.296-.881-2.336-1.823-3.03-2.856zm8.054-7.984a14.038 14.038 0 00-4.777 2.656c-.396-.681-.545-1.343-.353-1.984a10.564 10.564 0 014.959-1.901c-.089.343-.068.732.171 1.23zm8.04 8.946c-1.351-.113-2.79-.424-4.247-.886a88.075 88.075 0 001.106-4.757c.82.174 1.762.31 2.643.338.372 1.601.543 3.437.498 5.305zm-.099-5.3c.728-.002 1.382-.086 1.871-.285a12.227 12.227 0 012.129 5.08c-.859.427-1.977.588-3.257.543-.02-1.884-.276-3.734-.743-5.338zm-4.337 5.123c1.52.462 3.019.758 4.413.844-.093 1.876-.399 3.737-.932 5.416-1.621-.116-3.368-.455-5.143-.985a69.978 69.978 0 001.662-5.275zm-2.563 4.987c-1.924-.641-3.72-1.444-5.315-2.431a23.78 23.78 0 012.585-4.896c1.346.828 2.914 1.547 4.527 2.095a190.184 190.184 0 01-1.797 5.232zm2.027-5.939c-1.545-.54-3.032-1.227-4.328-2.012.98-1.384 2.076-2.666 3.205-3.737a8.504 8.504 0 002.568 1.141 230.69 230.69 0 01-1.445 4.608zm-4.999-2.436c-1.109-.737-2.002-1.515-2.581-2.315a14.8 14.8 0 014.692-2.73c.298.485.745.977 1.325 1.43-1.224.999-2.393 2.241-3.436 3.615zm-2.603 6.663c1.578.972 3.423 1.796 5.322 2.414a172.34 172.34 0 01-1.49 3.95c-1.618-.539-3.161-1.215-4.532-2.046-.091-1.293.169-2.762.7-4.318zm6.221 2.69c1.788.52 3.53.838 5.179.939-.561 1.552-1.318 2.888-2.311 3.858-1.416-.122-2.946-.42-4.502-.887a54.732 54.732 0 001.634-3.91zm5.984.971c1.402.026 2.624-.136 3.618-.512-.621 1.626-1.542 3-2.638 3.939-.841.346-1.985.492-3.298.45 1.008-.983 1.775-2.331 2.318-3.877zm.21-.638c.51-1.685.77-3.56.803-5.43 1.313.021 2.451-.16 3.348-.605a12.79 12.79 0 01-.51 5.502c-.975.404-2.212.568-3.641.533zm2.186-11.835c.359-.21.574-.5.586-.911 1.535 1.38 2.273 3.244 2.78 4.471a2.696 2.696 0 01-1.058 1.397 12.225 12.225 0 00-2.308-4.957zm.076-2.298c.003.003.005.008.008.01a11.758 11.758 0 013.217 5.3l.015.036c.015.053.027.108.043.161-.018-.065-.038-.13-.056-.197-.687-1.775-1.172-2.908-2.757-4.31-.068-.285-.217-.616-.46-.992l-.096-.09c.026.03.056.055.086.082zm-6.557-3.118c-.02-.002-.038-.002-.058-.002.25.03.5.068.745.116-.003-.003-.005-.003-.005-.005l.09.02-.083-.015c.705.46 1.063.939 1.386 1.467l.003-.003c-.22-.52-.434-.86-.854-1.35-.068-.018-.138-.033-.207-.049l.205.043c0 .003.002.003.002.005.581.14 1.147.321 1.69.543 0 0 0-.002.002-.002l.121.05c-.04-.018-.083-.033-.123-.048-.22.303-.51.53-.836.808a.063.063 0 00.01.02c.199-.07.8-.426 1.033-.745a.383.383 0 00-.046-.02l.048.02c.513.22 1.005.475 1.477.763l-.002-.002.043.027-.041-.025a12 12 0 01.478.384c-.995-.374-1.99-.51-2.987-.402 1.388.084 2.537.361 3.449.831.469.462.747.859.881 1.212-1.033-.735-2.399-1.394-4.26-1.974l-.126-.048c1.896.712 3.353 1.527 4.477 2.41.02.352-.147.632-.472.84-1.036-1.193-2.359-2.283-4.013-3.195 1.576.982 2.823 2.106 3.788 3.315-.394.177-.947.276-1.624.288-.517-1.54-1.245-2.813-2.164-3.603.786.818 1.392 2.086 1.801 3.603-.43-.01-.904-.048-1.414-.118a8.152 8.152 0 01-.988-.2c.215-1.08.415-2.174.599-3.28a295.718 295.718 0 01-.932 3.184 9.028 9.028 0 01-2.245-1.053c1.063-.941 2.144-1.681 3.179-2.136-1.179.316-2.393.97-3.575 1.861-.528-.389-.954-.805-1.247-1.217a14.292 14.292 0 014.822-.641c.003-.018.005-.036.01-.053a13.216 13.216 0 00-5.027.389c-.222-.404-.3-.783-.189-1.106 1.57-.104 3.31.1 5.214.717-1.838-.677-3.548-.967-5.108-.935.197-.29.487-.487.911-.563 1.788.081 3.041.533 4.227 1.472l.008-.007c-.871-.828-1.977-1.361-3.343-1.604a9.115 9.115 0 011.219.016c-.05-.005-.098-.013-.149-.018.063 0 .132.008.2.015zm-12.539 7.595c0 .003 0 .003 0 0 .053-.144.111-.285.169-.427l-.007.016.015-.033a11.808 11.808 0 013.126-4.346l.002-.005.056-.043c.267-.232.548-.452.835-.659l.053-.043-.007.008a11.69 11.69 0 014.656-1.967h-.023c.041-.008.081-.013.124-.018a11.682 11.682 0 012.027-.179c.266 0 .528.013.788.03-.926-.058-1.866 0-2.815.15-.033.004-.066.012-.101.017.192-.008.381-.013.568-.013a1.043 1.043 0 00-.662.632c-1.835.146-3.423.72-4.774 1.659a2.71 2.71 0 01.212-.311c-.015.01-.03.023-.048.033l-.836.659a3.051 3.051 0 00-.055.048c-.013.048-.026.096-.036.144-1.343 1.108-2.366 2.54-3.09 4.201l-.008.018c.755-1.401 1.442-2.528 3.065-3.86-.068.668.091 1.307.457 1.966-1.353 1.263-2.403 2.765-3.067 4.452-.394-.69-.614-1.404-.624-2.129 0 .005-.003.008-.003.01l.003-.01zm7.353 15.236c-.048-.015-.091-.033-.137-.05a11.783 11.783 0 01-6.292-5.124.03.03 0 01.005.015l-.018-.033a12.284 12.284 0 01-.686-1.348l-.01-.018v-.005a11.587 11.587 0 01-.351-.936l-.008-.015-.01-.04a11.79 11.79 0 01-.343-1.319l-.008-.025c.002.005.002.01.005.015a11.754 11.754 0 01.255-5.618v-.008l.02-.065c-.007.025-.012.048-.02.073.038.707.258 1.399.624 2.063a10.225 10.225 0 00-.402 4.689 4.756 4.756 0 01-.474-1.124l.343 1.318.018.056c.07.149.149.298.234.442.036.176.069.318.114.494.003.008.008.015.01.023l.687 1.348.01.018c-.205-.434-.29-.818-.404-1.262.654.868 1.553 1.654 2.603 2.348.364 1.934 1.551 3.133 4.093 4.035l.094.03c-2.048-.816-3.22-1.904-3.523-3.679 1.306.78 2.76 1.434 4.278 1.93-.238.598-.47 1.178-.712 1.764l.085.03-.08-.022zm2.898.56l.015-.002a11.464 11.464 0 01-2.333-.39s0 .003-.002.003l-.187-.055.187.053c.295-.563.583-1.136.858-1.715 1.477.437 2.876.717 4.219.841-.138.137-1.381 1.136-2.744 1.26l.088.008-.101-.003zm6.54-1.484l-.013.002a11.67 11.67 0 01-5.754 1.508c-.101 0-.202-.006-.303-.008l-.028.002-.177-.007c.069.002.137.002.205.005a5.54 5.54 0 003.116-1.23c1.171.056 2.166-.03 2.941-.27a2.63 2.63 0 00.147-.086c-.046.028-.089.058-.134.084zm4.987-5.512c-.003.002-.005.002-.005.005a11.798 11.798 0 01-3.773 4.716l-.022.018c-.046.033-.094.063-.139.096l.161-.114c1.243-.942 2.23-2.343 2.854-4.02.358-.194.666-.426.919-.696a2.1 2.1 0 00.043-.099c-.013.033-.023.063-.038.094zm.495-1.346a.934.934 0 01.025-.086c-.217.609-.634 1.086-1.21 1.442.508-1.68.657-3.57.344-5.474.51-.341.883-.758 1.108-1.331.078.343.131.672.182 1.018-.003-.02-.003-.038-.005-.058.002.032.008.065.01.1l-.008-.043a11.767 11.767 0 01-.424 4.345l.013-.032c-.01.04-.023.078-.035.119z" fill="#AF1C08"/><path fill-rule="evenodd" clip-rule="evenodd" d="M128.505 10.822c.028.023.056.04.084.063-.023-.022-.051-.043-.074-.066l-.01.003z" fill="#AF1C08"/><path fill-rule="evenodd" clip-rule="evenodd" d="M128.493 10.812l-.031.026.044-.016-.013-.01z" fill="#AF1C08"/></svg>